<?xml version="1.0" encoding="utf-8"?>
<!-- Generator: Adobe Illustrator 22.0.1, SVG Export Plug-In . SVG Version: 6.00 Build 0)  -->
<svg version="1.1" id="레이어_1" xmlns="http://www.w3.org/2000/svg" xmlns:xlink="http://www.w3.org/1999/xlink" x="0px"
	 y="0px" viewBox="0 0 353.8 100" style="enable-background:new 0 0 353.8 100;" xml:space="preserve">
<style type="text/css">
	.st0{fill:#29B6F6;}
	.st1{fill:#060001;}
	.st2{fill:#FF3366;}
	.st3{fill:#2FAC66;}
	.st4{fill:#33CCCC;}
	.st5{fill:#C71628;}
	.st6{fill:#231815;}
	.st7{fill:#905D3B;}
	.st8{fill:#B3B3B3;}
	.st9{fill:none;stroke:#B3B3B3;stroke-miterlimit:10;}
	.st10{fill:#203452;}
	.st11{fill:#B5985A;}
	.st12{fill:#F5D821;}
	.st13{fill:#FFFFFF;}
	.st14{fill:#681E20;}
	.st15{fill:#123943;}
	.st16{fill:#3949AB;}
	.st17{fill:#148F50;}
	.st18{fill:#53423B;}
	.st19{fill:#008FBA;}
	.st20{fill:#0D718A;}
	.st21{fill:#B9B200;}
	.st22{fill:#115B4F;}
	.st23{fill:#A7E2DE;}
	.st24{fill:#FBD200;}
	.st25{fill:#5983FC;}
	.st26{fill:#EC6300;}
	.st27{fill:#317BFF;}
	.st28{fill:#DF2413;}
	.st29{fill:#801A27;}
	.st30{fill:#67338E;}
	.st31{fill:#61A1E1;}
	.st32{fill:#28A9C7;}
	.st33{fill:#20385E;}
	.st34{fill:#5C407B;}
	.st35{fill:#00A1A3;}
	.st36{fill:#3A67A0;}
	.st37{fill:#149262;}
	.st38{fill:#009188;}
	.st39{fill:#9FA0A0;}
	.st40{fill:#034621;}
	.st41{fill:#DB9984;}
	.st42{fill:#394653;}
	.st43{fill:#00ACC1;}
	.st44{fill:#E54234;}
	.st45{fill:#12100B;}
	.st46{fill:url(#SVGID_1_);}
	.st47{fill:url(#SVGID_2_);}
	.st48{fill:url(#SVGID_3_);}
	.st49{fill:url(#SVGID_4_);}
	.st50{fill:url(#SVGID_5_);}
	.st51{fill:url(#SVGID_6_);}
	.st52{fill:url(#SVGID_7_);}
	.st53{fill:url(#SVGID_8_);}
	.st54{fill:url(#SVGID_9_);}
	.st55{fill:url(#SVGID_10_);}
	.st56{fill:url(#SVGID_11_);}
	.st57{fill:url(#SVGID_12_);}
	.st58{fill:url(#SVGID_13_);}
	.st59{fill:url(#SVGID_14_);}
	.st60{fill:url(#SVGID_15_);}
	.st61{fill:url(#SVGID_16_);}
	.st62{fill:url(#SVGID_17_);}
	.st63{fill:url(#SVGID_18_);}
	.st64{fill:url(#SVGID_19_);}
	.st65{fill:url(#SVGID_20_);}
	.st66{fill:url(#SVGID_21_);}
	.st67{fill:url(#SVGID_22_);}
	.st68{fill:url(#SVGID_23_);}
	.st69{fill:url(#SVGID_24_);}
	.st70{fill:#9ACBCC;}
	.st71{fill:url(#SVGID_25_);}
	.st72{fill:url(#SVGID_26_);}
	.st73{fill:url(#SVGID_27_);}
	.st74{fill:url(#SVGID_28_);}
	.st75{fill:url(#SVGID_29_);}
	.st76{fill:url(#SVGID_30_);}
	.st77{fill:url(#SVGID_31_);}
	.st78{fill:url(#SVGID_32_);}
	.st79{fill:url(#SVGID_33_);}
	.st80{fill:url(#SVGID_34_);}
	.st81{fill:url(#SVGID_35_);}
	.st82{fill:url(#SVGID_36_);}
	.st83{fill:#F7F8F8;}
	.st84{fill:#40B2E6;}
	.st85{fill:none;stroke:#29B6F6;stroke-width:0.5;stroke-miterlimit:10;}
	.st86{fill:none;stroke:#29B6F6;stroke-width:0.5;stroke-miterlimit:10;stroke-dasharray:1.9429,1.9429;}
	.st87{fill:none;stroke:#29B6F6;stroke-width:0.5;stroke-miterlimit:10;stroke-dasharray:1.9972,1.9972;}
	.st88{fill:none;stroke:#40B2E6;stroke-width:0.5;stroke-miterlimit:10;}
	.st89{fill:none;stroke:#40B2E6;stroke-width:0.5;stroke-miterlimit:10;stroke-dasharray:1.9886,1.9886;}
	.st90{fill:#69C6CF;}
</style>
<g>
	<g>
		<path class="st0" d="M74.8,0H4C1.8,0,0,1.8,0,3.9v70.9C0,77,1.8,78.7,4,78.7h70.9c2.2,0,3.9-1.8,3.9-3.9V3.9C78.8,1.8,77,0,74.8,0
			z M39.4,13.9c2.6,0,4.6,2.1,4.6,4.6s-2.1,4.6-4.6,4.6c-2.6,0-4.6-2.1-4.6-4.6S36.8,13.9,39.4,13.9z M60.3,64.9H51V37.1H27.8v27.8
			h-9.3V27.8h41.7V64.9z"/>
	</g>
	<g>
		<g>
			<g>
				<path class="st0" d="M6,100c-0.9,0-1.7-0.2-2.4-0.5c-0.7-0.3-1.4-0.7-1.9-1.3c-0.5-0.5-1-1.2-1.3-1.9C0.2,95.6,0,94.8,0,94v0
					c0-0.8,0.2-1.6,0.5-2.4c0.3-0.7,0.7-1.4,1.3-1.9c0.5-0.6,1.2-1,1.9-1.3c0.7-0.3,1.6-0.5,2.5-0.5c0.5,0,1,0,1.5,0.1
					c0.5,0.1,0.9,0.2,1.2,0.4c0.4,0.2,0.7,0.3,1,0.6c0.3,0.2,0.6,0.5,0.9,0.7l-1.6,1.9c-0.5-0.4-0.9-0.7-1.4-1
					c-0.5-0.2-1-0.4-1.6-0.4c-0.5,0-0.9,0.1-1.4,0.3c-0.4,0.2-0.8,0.5-1.1,0.8c-0.3,0.3-0.5,0.7-0.7,1.2c-0.2,0.4-0.3,0.9-0.3,1.4v0
					c0,0.5,0.1,1,0.3,1.4c0.2,0.4,0.4,0.8,0.7,1.2c0.3,0.3,0.7,0.6,1.1,0.8c0.4,0.2,0.9,0.3,1.4,0.3c0.7,0,1.2-0.1,1.7-0.4
					c0.5-0.2,0.9-0.6,1.4-1l1.6,1.7c-0.3,0.3-0.6,0.6-0.9,0.9c-0.3,0.3-0.7,0.5-1.1,0.7c-0.4,0.2-0.8,0.3-1.3,0.4
					C7.1,100,6.6,100,6,100z"/>
				<path class="st0" d="M17.4,100c-0.9,0-1.7-0.2-2.5-0.5c-0.8-0.3-1.4-0.7-2-1.3c-0.6-0.5-1-1.2-1.3-1.9c-0.3-0.7-0.5-1.5-0.5-2.4
					v0c0-0.8,0.2-1.6,0.5-2.4c0.3-0.7,0.7-1.4,1.3-1.9c0.6-0.6,1.2-1,2-1.3c0.8-0.3,1.6-0.5,2.5-0.5c0.9,0,1.7,0.2,2.5,0.5
					c0.8,0.3,1.4,0.7,2,1.3c0.6,0.5,1,1.2,1.3,1.9c0.3,0.7,0.5,1.5,0.5,2.4v0c0,0.8-0.2,1.6-0.5,2.4c-0.3,0.7-0.7,1.4-1.3,1.9
					c-0.6,0.6-1.2,1-2,1.3C19.1,99.8,18.3,100,17.4,100z M17.4,97.6c0.5,0,1-0.1,1.4-0.3c0.4-0.2,0.8-0.5,1.1-0.8
					c0.3-0.3,0.5-0.7,0.7-1.2c0.2-0.4,0.3-0.9,0.3-1.4v0c0-0.5-0.1-1-0.3-1.4c-0.2-0.4-0.4-0.8-0.7-1.2c-0.3-0.3-0.7-0.6-1.1-0.8
					c-0.4-0.2-0.9-0.3-1.4-0.3c-0.5,0-1,0.1-1.4,0.3c-0.4,0.2-0.8,0.5-1.1,0.8c-0.3,0.3-0.5,0.7-0.7,1.2c-0.2,0.4-0.3,0.9-0.3,1.4v0
					c0,0.5,0.1,1,0.3,1.4c0.2,0.4,0.4,0.8,0.7,1.2c0.3,0.3,0.7,0.6,1.1,0.8C16.4,97.5,16.9,97.6,17.4,97.6z"/>
				<path class="st0" d="M37.9,88.1h8.8v2.3h-6.3v2.4h5.5V95h-5.5v2.5h6.4v2.3h-8.9V88.1z"/>
				<path class="st0" d="M53.8,100c-0.9,0-1.7-0.2-2.4-0.5c-0.7-0.3-1.4-0.7-1.9-1.3c-0.5-0.5-1-1.2-1.3-1.9
					c-0.3-0.7-0.5-1.5-0.5-2.4v0c0-0.8,0.2-1.6,0.5-2.4c0.3-0.7,0.7-1.4,1.3-1.9c0.5-0.6,1.2-1,1.9-1.3c0.7-0.3,1.6-0.5,2.5-0.5
					c0.5,0,1,0,1.5,0.1c0.5,0.1,0.9,0.2,1.2,0.4c0.4,0.2,0.7,0.3,1,0.6c0.3,0.2,0.6,0.5,0.9,0.7l-1.6,1.9c-0.5-0.4-0.9-0.7-1.4-1
					c-0.5-0.2-1-0.4-1.6-0.4c-0.5,0-0.9,0.1-1.4,0.3c-0.4,0.2-0.8,0.5-1.1,0.8c-0.3,0.3-0.5,0.7-0.7,1.2c-0.2,0.4-0.3,0.9-0.3,1.4v0
					c0,0.5,0.1,1,0.3,1.4c0.2,0.4,0.4,0.8,0.7,1.2c0.3,0.3,0.7,0.6,1.1,0.8c0.4,0.2,0.9,0.3,1.4,0.3c0.7,0,1.2-0.1,1.7-0.4
					c0.5-0.2,0.9-0.6,1.4-1l1.6,1.7c-0.3,0.3-0.6,0.6-0.9,0.9c-0.3,0.3-0.7,0.5-1.1,0.7c-0.4,0.2-0.8,0.3-1.3,0.4
					C54.9,100,54.4,100,53.8,100z"/>
				<path class="st0" d="M62.9,90.5h-3.6v-2.4H69v2.4h-3.6v9.3h-2.6V90.5z"/>
				<path class="st0" d="M74.5,100c-0.9,0-1.8-0.2-2.6-0.5c-0.9-0.3-1.6-0.8-2.3-1.4l1.5-1.8c0.5,0.4,1.1,0.8,1.6,1
					c0.6,0.3,1.2,0.4,1.8,0.4c0.5,0,1-0.1,1.2-0.3c0.3-0.2,0.4-0.5,0.4-0.8v0c0-0.2,0-0.3-0.1-0.4c-0.1-0.1-0.2-0.2-0.4-0.4
					c-0.2-0.1-0.4-0.2-0.7-0.3c-0.3-0.1-0.7-0.2-1.2-0.4c-0.6-0.1-1.1-0.3-1.6-0.5c-0.5-0.2-0.9-0.4-1.2-0.7c-0.3-0.3-0.6-0.6-0.8-1
					c-0.2-0.4-0.3-0.9-0.3-1.5v0c0-0.5,0.1-1,0.3-1.4c0.2-0.4,0.5-0.8,0.8-1.1c0.4-0.3,0.8-0.6,1.3-0.7c0.5-0.2,1.1-0.3,1.7-0.3
					c0.9,0,1.6,0.1,2.4,0.4c0.7,0.3,1.4,0.6,2,1.1L77,91.3c-0.5-0.4-1-0.6-1.5-0.8c-0.5-0.2-1-0.3-1.5-0.3c-0.5,0-0.9,0.1-1.1,0.3
					c-0.3,0.2-0.4,0.4-0.4,0.7v0c0,0.2,0,0.4,0.1,0.5c0.1,0.1,0.2,0.3,0.4,0.4c0.2,0.1,0.5,0.2,0.8,0.3c0.3,0.1,0.7,0.2,1.3,0.4
					c0.6,0.2,1.1,0.3,1.6,0.5c0.5,0.2,0.9,0.4,1.2,0.7c0.3,0.3,0.6,0.6,0.7,1c0.2,0.4,0.2,0.8,0.2,1.3v0c0,0.6-0.1,1.1-0.3,1.5
					c-0.2,0.5-0.5,0.8-0.9,1.1c-0.4,0.3-0.8,0.5-1.3,0.7C75.7,99.9,75.1,100,74.5,100z"/>
				<polygon class="st0" points="25.2,88.1 25.2,90.7 25.2,99.8 27.8,99.8 27.8,90.7 33,90.7 33,99.8 35.6,99.8 35.6,90.7 
					35.6,88.1 				"/>
			</g>
			<circle class="st0" cx="30.4" cy="85.8" r="1.2"/>
		</g>
	</g>
	<g>
		<g id="XMLID_1_">
			<path id="XMLID_18_" class="st1" d="M123.9,29.2c-3.4-3.1-6.3-3.3-7.6-3.3c-1.4,0-3.2,0.2-4.4,1.6c-0.7,0.7-1.2,1.7-1.2,2.9
				c0,1.1,0.3,1.9,1,2.5c1.1,1,2.7,1.4,5.7,2.6l3.4,1.3c2,0.7,4.4,1.8,6.2,3.5c2.7,2.5,3.3,5.8,3.3,8.4c0,4.7-1.6,8.8-4,11.2
				c-4,4.2-9.9,4.6-12.9,4.6c-3.3,0-6.1-0.5-9-1.9c-2.3-1.2-5-3.3-6.7-5l5.4-7.5c1.2,1.2,3,2.7,4.2,3.5c1.8,1.1,3.6,1.6,5.7,1.6
				c1.4,0,3.3-0.3,4.8-1.6c0.9-0.7,1.6-2,1.6-3.7c0-1.5-0.6-2.5-1.6-3.3c-1.2-1-4-2-5.3-2.5L109,43c-2.1-0.7-4.6-1.7-6.3-3.6
				c-2.4-2.5-2.7-5.7-2.7-7.9c0-4,1.2-7.4,3.9-10.2c3.2-3.3,7-4.2,11.2-4.2c3.1,0,8.2,0.5,13.5,4.5L123.9,29.2z"/>
			<path id="XMLID_16_" class="st1" d="M151.8,27v36.5h-10.5V27h-9.9v-8.8h30.2V27H151.8z"/>
			<path id="XMLID_14_" class="st1" d="M218,45c0,4.4-0.5,9.7-5,14.4c-4.4,4.5-9.4,5.2-14.2,5.2s-9.8-0.7-14.2-5.2
				c-4.5-4.6-5-10-5-14.4V18.1h10.5v26.6c0,2,0.1,5.3,2.4,7.6c1.8,2,4.4,2.4,6.3,2.4c2,0,4.5-0.4,6.3-2.4c2.2-2.3,2.4-5.6,2.4-7.6
				V18.1H218V45z"/>
			<path id="XMLID_12_" class="st1" d="M222.9,33.2h9.8v3.6c3-3.8,6.5-4.4,9.4-4.4c2.7,0,6.1,0.5,8.7,3.1c2.9,2.9,3.1,6.5,3.1,8.9
				v19.2H244V48c0-2-0.1-4.5-1.6-6.1c-0.7-0.7-2-1.4-3.7-1.4c-2,0-3.3,0.8-4.1,1.6c-1.6,1.6-1.9,3.8-1.9,5.8v15.6h-9.8V33.2z"/>
			<path id="XMLID_9_" class="st1" d="M263.5,14.5c3.2,0,5.7,2.5,5.7,5.7s-2.5,5.7-5.7,5.7c-3.2,0-5.7-2.5-5.7-5.7
				S260.3,14.5,263.5,14.5z M268.4,33.2v30.4h-9.8V33.2H268.4z"/>
			<path id="XMLID_7_" class="st1" d="M284.6,41.1v22.5h-9.8V41.1h-3.4v-7.9h3.4v-9.8h9.8v9.8h6.1v7.9H284.6z"/>
			<path id="XMLID_4_" class="st1" d="M316,33.2h9.8v30.4H316v-3.7c-2.7,4.1-6.5,4.7-9,4.7c-4.4,0-8-1.1-11.4-4.6
				c-3.2-3.4-4.4-7.4-4.4-11.4c0-5.1,1.9-9.5,4.7-12.3c2.7-2.7,6.3-4.2,10.6-4.2c2.6,0,6.7,0.6,9.5,4.4V33.2z M303.5,42.8
				c-1,1-2.2,2.8-2.2,5.5c0,2.7,1.2,4.5,2,5.4c1.4,1.4,3.5,2.4,5.8,2.4c2,0,3.8-0.8,5.1-2.1c1.3-1.2,2.4-3.1,2.4-5.7
				c0-2.2-0.8-4.2-2.2-5.6c-1.5-1.4-3.7-2.1-5.4-2.1C306.8,40.6,304.8,41.5,303.5,42.8z"/>
			<path id="XMLID_2_" class="st1" d="M348.7,40.9c-1.5-0.9-3.5-1.7-5.4-1.7c-1,0-2.2,0.3-2.8,0.9c-0.3,0.3-0.6,0.9-0.6,1.4
				c0,0.7,0.5,1.1,1,1.4c0.7,0.4,1.7,0.6,2.9,1l2.6,0.8c1.7,0.5,3.5,1.2,5,2.7c1.8,1.6,2.4,3.5,2.4,5.8c0,4-1.8,6.6-3.1,8
				c-3,3-6.7,3.5-9.9,3.5c-4.1,0-8.5-0.9-12.5-4.4l4.2-6.6c1,0.8,2.3,1.8,3.3,2.2c1.4,0.7,2.8,1,4.1,1c0.6,0,2.2,0,3.1-0.7
				c0.6-0.5,1-1.2,1-2c0-0.5-0.2-1.2-1.1-1.8c-0.7-0.4-1.6-0.7-3-1.1l-2.4-0.7c-1.8-0.5-3.6-1.5-4.9-2.8c-1.4-1.5-2.2-3.2-2.2-5.5
				c0-2.9,1.2-5.4,2.9-7c2.7-2.5,6.4-3.1,9.2-3.1c4.5,0,7.6,1.2,10.1,2.6L348.7,40.9z"/>
		</g>
	</g>
</g>
</svg>
